<svg xmlns="http://www.w3.org/2000/svg" fill="none" viewBox="44 4 66.94 66.94">
<g filter="url(#filter0_d_0_1299)">
<rect x="44" y="18.1468" width="54.6589" height="54.6589" rx="27.3295" transform="rotate(-15 44 18.1468)" fill="#FFF3F3"/>
</g>
<path d="M92.7859 33.249C93.5942 36.2656 93.4898 39.4542 92.4859 42.4115C91.4821 45.3688 89.6238 47.962 87.1461 49.8632C84.6684 51.7644 81.6827 52.8881 78.5663 53.0924C75.4499 53.2967 72.343 52.5722 69.6384 51.0107C66.9337 49.4492 64.7529 47.1207 63.3716 44.3197C61.9903 41.5188 61.4706 38.3711 61.8783 35.2748C62.2859 32.1785 63.6026 29.2726 65.6617 26.9245C67.7209 24.5765 70.4301 22.8918 73.4467 22.0835L77.5336 37.3359L92.7859 33.249Z" fill="#F15060"/>
<path d="M75.1643 19.1073C77.1672 18.5707 79.2563 18.4337 81.3122 18.7044C83.368 18.9751 85.3505 19.648 87.1463 20.6848C88.9421 21.7216 90.5161 23.102 91.7784 24.7471C93.0408 26.3922 93.9667 28.2699 94.5034 30.2728L79.2511 34.3597L75.1643 19.1073Z" fill="#FF7482"/>
<defs>
<filter id="filter0_d_0_1299" x="0.135376" y="0.135376" width="154.672" height="154.673" filterUnits="userSpaceOnUse" color-interpolation-filters="sRGB">
<feFlood flood-opacity="0" result="BackgroundImageFix"/>
<feColorMatrix in="SourceAlpha" type="matrix" values="0 0 0 0 0 0 0 0 0 0 0 0 0 0 0 0 0 0 127 0" result="hardAlpha"/>
<feMorphology radius="20" operator="erode" in="SourceAlpha" result="effect1_dropShadow_0_1299"/>
<feOffset dy="40"/>
<feGaussianBlur stdDeviation="35"/>
<feColorMatrix type="matrix" values="0 0 0 0 0 0 0 0 0 0 0 0 0 0 0 0 0 0 0.2 0"/>
<feBlend mode="normal" in2="BackgroundImageFix" result="effect1_dropShadow_0_1299"/>
<feBlend mode="normal" in="SourceGraphic" in2="effect1_dropShadow_0_1299" result="shape"/>
</filter>
</defs>
</svg>