<svg width="301" height="622" viewBox="0 0 301 622" fill="none" xmlns="http://www.w3.org/2000/svg">
<path fill-rule="evenodd" clip-rule="evenodd" d="M45.2082 0H255.792C279.628 0 298.95 19.3203 298.95 43.1531V136.283C299.817 136.589 300.438 137.416 300.438 138.388V200.141C300.438 201.113 299.817 201.94 298.95 202.246V578.847C298.95 602.68 279.628 622 255.792 622H45.2082C21.3725 622 2.04975 602.68 2.04975 578.847V211.918C1.18271 211.612 0.561523 210.785 0.561523 209.813V174.1C0.561523 173.129 1.18271 172.302 2.04975 171.995V158.349C1.18271 158.043 0.561523 157.216 0.561523 156.244V120.531C0.561523 119.559 1.18271 118.732 2.04975 118.426V100.316C1.18271 100.009 0.561523 99.1824 0.561523 98.2105V79.61C0.561523 78.6382 1.18271 77.8114 2.04975 77.505V43.1531C2.04975 19.3203 21.3725 0 45.2082 0ZM45.2082 8.92823C26.3039 8.92823 10.9791 24.2513 10.9791 43.1531V578.847C10.9791 597.749 26.3039 613.072 45.2082 613.072H255.792C274.696 613.072 290.021 597.749 290.021 578.847V43.1531C290.021 24.2513 274.696 8.92823 255.792 8.92823H233.406C230.842 9.83046 229.004 12.2738 229.004 15.1461C229.004 24.2449 221.627 31.6208 212.527 31.6208H87.7289C78.629 31.6208 71.2521 24.2449 71.2521 15.1461C71.2521 12.2738 69.4141 9.83046 66.8499 8.92823H45.2082Z" fill="#201F37"/>
</svg>
